<svg xmlns:xlink="http://www.w3.org/1999/xlink" xmlns="http://www.w3.org/2000/svg" xml:space="preserve" style="max-height: 500px" viewBox="46.2 45.900000000000006 507 508.50000000000006" y="0px" x="0px" version="1.1" width="507" height="508.50000000000006"><g><g><g><path d="M60,545c-1.28,0-2.559-0.488-3.536-1.465c-1.953-1.952-1.953-5.118,0-7.07l480-480c1.951-1.952,5.119-1.952,7.07,0     c1.953,1.953,1.953,5.119,0,7.071l-480,480C62.559,544.512,61.28,545,60,545z" fill="#f9f9f9"/></g><g><path d="M540,545c-1.279,0-2.56-0.488-3.535-1.465l-480-480c-1.953-1.953-1.953-5.119,0-7.071c1.953-1.952,5.118-1.952,7.071,0     l480,480c1.953,1.952,1.953,5.118,0,7.07C542.56,544.512,541.279,545,540,545z" fill="#f9f9f9"/></g><g><path d="M540,545H60c-2.761,0-5-2.238-5-5V60c0-2.761,2.239-5,5-5h480c2.762,0,5,2.239,5,5v480C545,542.762,542.762,545,540,545z      M65,535h470V65H65V535z" fill="#f9f9f9"/></g></g></g><text font-family="'Helvetica Neue', Helvetica, Arial-Unicode, Arial, Sans-serif" font-weight="bold" font-size="5px" fill="#f9f9f9" y="615" x="0">Created by ibrandify</text><text font-family="'Helvetica Neue', Helvetica, Arial-Unicode, Arial, Sans-serif" font-weight="bold" font-size="5px" fill="#f9f9f9" y="620" x="0">from the Noun Project</text></svg>